<svg width="306" height="306" viewBox="0 0 306 306" fill="none" xmlns="http://www.w3.org/2000/svg">
<rect x="0.21" y="0.21" width="304.92" height="304.92" stroke="black" stroke-width="0.42"/>
<path d="M264.538 77.3737C251.827 91.5325 220.033 95.5819 213.486 95.2696C214.195 85.3861 214.651 58.4483 231.382 44.217C251.853 26.8042 271.245 25.2812 282.434 26.3211C284.596 43.5961 278.208 64.5054 264.538 77.3737Z" fill="#00884A"/>
<circle cx="153.743" cy="151.755" r="34.5195" fill="#671761"/>
<path d="M191.413 73.6392C189.083 72.503 171.429 64.0845 161.136 59.1782C156.479 56.9585 151.056 57.0871 146.504 59.5149L76.4601 96.8743C71.1628 99.6998 67.8539 105.215 67.8539 111.219V190.956C67.8539 196.899 71.0964 202.368 76.3102 205.22L145.256 242.927C150.079 245.565 155.909 245.586 160.752 242.984L231.068 205.196C236.341 202.362 239.63 196.861 239.63 190.875V117.986" stroke="#671761" stroke-width="20.16" stroke-linecap="round"/>
</svg>
