<svg width="580" height="133" viewBox="0 0 580 133" fill="none" xmlns="http://www.w3.org/2000/svg">
<path d="M350.25 38.4207C345.285 43.9514 332.865 45.5332 330.307 45.4113C330.584 41.5505 330.762 31.0279 337.298 25.4688C345.295 18.6669 352.869 18.072 357.24 18.4782C358.085 25.2263 355.589 33.394 350.25 38.4207Z" fill="#00884A"/>
<circle cx="306.97" cy="67.4757" r="13.4842" fill="#671761"/>
<path d="M321.685 36.9618C320.775 36.518 313.879 33.2295 309.858 31.313C308.039 30.4459 305.921 30.4961 304.143 31.4445L276.782 46.038C274.713 47.1417 273.42 49.296 273.42 51.6412V82.7888C273.42 85.1101 274.687 87.2465 276.723 88.3604L303.655 103.09C305.539 104.12 307.817 104.129 309.708 103.112L337.176 88.351C339.235 87.2442 340.52 85.0953 340.52 82.7572V54.2849" stroke="#671761" stroke-width="7.875" stroke-linecap="round"/>
<path d="M43.3591 28.4712C53.1872 28.4712 60.9195 31.3618 66.5562 37.143C72.2652 42.852 75.1196 51.1263 75.1196 61.9661V105H67.2066V82.6701H19.5116V105H11.707V61.9661C11.707 51.1263 14.5253 42.852 20.162 37.143C25.8709 31.3618 33.6033 28.4712 43.3591 28.4712ZM67.2066 75.7326V61.2073C67.2066 52.7523 65.1109 46.393 60.9195 42.1293C56.7281 37.7934 50.8747 35.6254 43.3591 35.6254C35.8435 35.6254 29.99 37.7934 25.7987 42.1293C21.6073 46.393 19.5116 52.7523 19.5116 61.2073V75.7326H67.2066ZM202.03 28.4712C210.701 28.4712 217.458 30.9643 222.3 35.9506C227.142 40.9369 229.563 48.1635 229.563 57.6302V105H221.65V57.847C221.65 50.4759 219.771 44.9477 216.013 41.2621C212.327 37.5043 207.269 35.6254 200.837 35.6254C194.044 35.6254 188.733 37.6127 184.903 41.5873C181.073 45.4896 179.158 51.4877 179.158 59.5813V105H171.245V57.847C171.245 50.4759 169.438 44.9477 165.825 41.2621C162.212 37.5043 157.189 35.6254 150.758 35.6254C143.892 35.6254 138.509 37.6127 134.606 41.5873C130.776 45.4896 128.861 51.4877 128.861 59.5813V105H120.84V29.1216H128.536V41.8041C130.632 37.4682 133.739 34.1801 137.858 31.9399C141.977 29.6274 146.855 28.4712 152.492 28.4712C158.418 28.4712 163.476 29.7358 167.668 32.2651C171.931 34.7221 175.002 38.1909 176.881 42.6713C179.049 38.0463 182.301 34.5415 186.637 32.1567C191.045 29.6997 196.176 28.4712 202.03 28.4712ZM439.795 105L422.451 80.6105C420.5 80.8273 418.477 80.9357 416.381 80.9357H396.002V105H387.981V29.1216H416.381C426.065 29.1216 433.652 31.4341 439.145 36.059C444.637 40.684 447.383 47.0433 447.383 55.137C447.383 61.0628 445.865 66.0852 442.83 70.2043C439.867 74.2512 435.604 77.1779 430.039 78.9845L448.575 105H439.795ZM416.164 74.1066C423.68 74.1066 429.425 72.4445 433.4 69.1203C437.374 65.7962 439.361 61.1351 439.361 55.137C439.361 48.9945 437.374 44.2973 433.4 41.0453C429.425 37.7211 423.68 36.059 416.164 36.059H396.002V74.1066H416.164ZM518.996 28.4712C528.825 28.4712 536.557 31.3618 542.194 37.143C547.903 42.852 550.757 51.1263 550.757 61.9661V105H542.844V82.6701H495.149V105H487.344V61.9661C487.344 51.1263 490.163 42.852 495.799 37.143C501.508 31.3618 509.241 28.4712 518.996 28.4712ZM542.844 75.7326V61.2073C542.844 52.7523 540.748 46.393 536.557 42.1293C532.366 37.7934 526.512 35.6254 518.996 35.6254C511.481 35.6254 505.627 37.7934 501.436 42.1293C497.245 46.393 495.149 52.7523 495.149 61.2073V75.7326H542.844Z" fill="black"/>
<path d="M43.3591 28.4712C53.1872 28.4712 60.9195 31.3618 66.5562 37.143C72.2652 42.852 75.1196 51.1263 75.1196 61.9661V105H67.2066V82.6701H19.5116V105H11.707V61.9661C11.707 51.1263 14.5253 42.852 20.162 37.143C25.8709 31.3618 33.6033 28.4712 43.3591 28.4712ZM67.2066 75.7326V61.2073C67.2066 52.7523 65.1109 46.393 60.9195 42.1293C56.7281 37.7934 50.8747 35.6254 43.3591 35.6254C35.8435 35.6254 29.99 37.7934 25.7987 42.1293C21.6073 46.393 19.5116 52.7523 19.5116 61.2073V75.7326H67.2066ZM202.03 28.4712C210.701 28.4712 217.458 30.9643 222.3 35.9506C227.142 40.9369 229.563 48.1635 229.563 57.6302V105H221.65V57.847C221.65 50.4759 219.771 44.9477 216.013 41.2621C212.327 37.5043 207.269 35.6254 200.837 35.6254C194.044 35.6254 188.733 37.6127 184.903 41.5873C181.073 45.4896 179.158 51.4877 179.158 59.5813V105H171.245V57.847C171.245 50.4759 169.438 44.9477 165.825 41.2621C162.212 37.5043 157.189 35.6254 150.758 35.6254C143.892 35.6254 138.509 37.6127 134.606 41.5873C130.776 45.4896 128.861 51.4877 128.861 59.5813V105H120.84V29.1216H128.536V41.8041C130.632 37.4682 133.739 34.1801 137.858 31.9399C141.977 29.6274 146.855 28.4712 152.492 28.4712C158.418 28.4712 163.476 29.7358 167.668 32.2651C171.931 34.7221 175.002 38.1909 176.881 42.6713C179.049 38.0463 182.301 34.5415 186.637 32.1567C191.045 29.6997 196.176 28.4712 202.03 28.4712ZM439.795 105L422.451 80.6105C420.5 80.8273 418.477 80.9357 416.381 80.9357H396.002V105H387.981V29.1216H416.381C426.065 29.1216 433.652 31.4341 439.145 36.059C444.637 40.684 447.383 47.0433 447.383 55.137C447.383 61.0628 445.865 66.0852 442.83 70.2043C439.867 74.2512 435.604 77.1779 430.039 78.9845L448.575 105H439.795ZM416.164 74.1066C423.68 74.1066 429.425 72.4445 433.4 69.1203C437.374 65.7962 439.361 61.1351 439.361 55.137C439.361 48.9945 437.374 44.2973 433.4 41.0453C429.425 37.7211 423.68 36.059 416.164 36.059H396.002V74.1066H416.164ZM518.996 28.4712C528.825 28.4712 536.557 31.3618 542.194 37.143C547.903 42.852 550.757 51.1263 550.757 61.9661V105H542.844V82.6701H495.149V105H487.344V61.9661C487.344 51.1263 490.163 42.852 495.799 37.143C501.508 31.3618 509.241 28.4712 518.996 28.4712ZM542.844 75.7326V61.2073C542.844 52.7523 540.748 46.393 536.557 42.1293C532.366 37.7934 526.512 35.6254 518.996 35.6254C511.481 35.6254 505.627 37.7934 501.436 42.1293C497.245 46.393 495.149 52.7523 495.149 61.2073V75.7326H542.844Z" fill="black"/>
</svg>
